<?xml version="1.0" encoding="UTF-8"?><svg version="1.1" viewBox="0 0 24 24" xmlns="http://www.w3.org/2000/svg" xmlns:xlink="http://www.w3.org/1999/xlink"><path d="M0 0h24v24h-24Z" fill="none"></path><path fill="#031C2A" d="M12 22c-5.523 0-10-4.477-10-10 0-5.523 4.477-10 10-10 5.523 0 10 4.477 10 10 0 5.523-4.477 10-10 10Zm0-2l-3.49691e-07-7.10543e-15c4.41828 1.93129e-07 8-3.58172 8-8 1.93129e-07-4.41828-3.58172-8-8-8l-3.49691e-07 6.21725e-15c-4.41828 1.93129e-07-8 3.58172-8 8 1.93129e-07 4.41828 3.58172 8 8 8Z"></path></svg>