<?xml version="1.0" encoding="UTF-8"?><svg version="1.1" viewBox="0 0 24 24" xmlns="http://www.w3.org/2000/svg" xmlns:xlink="http://www.w3.org/1999/xlink"><path d="M0 0h24v24h-24Z" fill="none"></path><path fill="#031C2A" d="M22 17.002l-4.02563e-08.000120073c-.000972752 2.81739-1.96145 5.25489-4.71312 5.85991l-.638-1.914 1.0988e-07-1.80941e-08c1.18308-.194819 2.21653-.9097 2.81612-1.94803h-2.465l-8.74228e-08-3.55271e-15c-1.10457-4.82823e-08-2-.895431-2-2 0 0 0 0 0 0v-4l2.13163e-14 3.01992e-07c-1.66785e-07-1.10457.89543-2 2-2h2.938l3.03985e-08 2.40804e-07c-.553431-4.38404-4.55604-7.48936-8.94008-6.93592 -3.62425.457517-6.47841 3.31168-6.93592 6.93592h2.938l-8.74228e-08 1.77636e-15c1.10457-4.82823e-08 2 .89543 2 2v4 0c0 1.10457-.895431 2-2 2h-3l-8.74228e-08-3.55271e-15c-1.10457-4.82823e-08-2-.895431-2-2 0 0 0 0 0 0v-5c-1.77636e-15-5.523 4.477-10 10-10 5.523 0 10 4.477 10 10v5.002Zm-2-.002v-4h-3v4h3Zm-16-4v4h3v-4h-3Z"></path></svg>