<?xml version="1.0" encoding="UTF-8"?><svg version="1.1" viewBox="0 0 24 24" xmlns="http://www.w3.org/2000/svg" xmlns:xlink="http://www.w3.org/1999/xlink"><path d="M0 0h24v24h-24Z" fill="none"></path><path fill="#031C2A" d="M21 13.242v6.758h1v2h-20v-2h1v-6.758l1.8092e-07 1.20758e-07c-1.25032-.834544-2.00083-2.23875-2-3.742 0-.827.224-1.624.633-2.303l2.712-4.697 2.33648e-08-4.0469e-08c.178628-.309393.508744-.499991.866-.5h13.579l-5.61035e-08-1.42286e-12c.357257 9.05569e-06.687372.190607.866.5l2.702 4.682 3.2136e-08 5.33768e-08c1.23926 2.05837.641163 4.72734-1.358 6.06Zm-2 .73l-1.76402e-08 1.97892e-09c-1.3937.156349-2.78053-.346608-3.75-1.36l8.24936e-08-8.62825e-08c-.848292.887254-2.02247 1.38908-3.25 1.389l-1.08949e-07 5.35554e-11c-1.22723.000603275-2.40137-.500483-3.25-1.387l1.75353e-07-1.83195e-07c-.969662 1.01303-2.35646 1.5156-3.75 1.359v6.027h14v-6.027Zm-13.211-9.972l-2.433 4.213 -7.12245e-08 1.75979e-07c-.518002 1.27986.0996055 2.73731 1.37946 3.25532 1.14434.463151 2.45542.0216765 3.08654-1.03932 .335-.837 1.52-.837 1.856 0l1.08362e-07 2.71591e-07c.511666 1.28241 1.96605 1.90721 3.24845 1.39555 .636884-.25411 1.14144-.758663 1.39555-1.39555 .335-.837 1.52-.837 1.856 0l-4.1616e-08-1.0244e-07c.519667 1.27918 1.97792 1.89489 3.25711 1.37523 1.27918-.519667 1.89489-1.97792 1.37523-3.25711 -.0492014-.121112-.107826-.238177-.175335-.350121l-2.425-4.197h-12.42Z"></path></svg>