<?xml version="1.0" encoding="UTF-8"?><svg version="1.1" viewBox="0 0 24 24" xmlns="http://www.w3.org/2000/svg" xmlns:xlink="http://www.w3.org/1999/xlink"><path d="M0 0h24v24h-24Z" fill="none"></path><path fill="#0287FF" d="M6 9h13.938l.5-2h-12.438v-2h13.72l1.33246e-08 3.49942e-13c.552285 1.45259e-05.999988.447742.999974 1.00003 -2.15444e-06.0819132-.0100688.163516-.0299737.242974l-2.5 10 2.70433e-08-1.07954e-07c-.111459.444931-.511321.756988-.97.757h-14.22 -4.37114e-08c-.552285-2.41411e-08-1-.447715-1-1 0 0 0 0 0 0v-12h-2v-2h3 -4.37114e-08c.552285-2.41411e-08 1 .447715 1 1v6Zm0 14l-8.74228e-08-3.55271e-15c-1.10457-4.82823e-08-2-.895431-2-2 4.82823e-08-1.10457.895431-2 2-2l-8.74228e-08 3.55271e-15c1.10457-4.82823e-08 2 .89543 2 2 4.82823e-08 1.10457-.89543 2-2 2Zm12 0l-8.74228e-08-3.55271e-15c-1.10457-4.82823e-08-2-.895431-2-2 4.82823e-08-1.10457.895431-2 2-2l-8.74228e-08 3.55271e-15c1.10457-4.82823e-08 2 .89543 2 2 4.82823e-08 1.10457-.89543 2-2 2Z"></path></svg>