<?xml version="1.0" encoding="UTF-8"?><svg version="1.1" viewBox="0 0 24 24" xmlns="http://www.w3.org/2000/svg" xmlns:xlink="http://www.w3.org/1999/xlink"><path d="M0 0h24v24h-24Z" fill="none"></path><path fill="#0287FF" d="M6.75 2.5l-1.85773e-07 3.55271e-15c2.34721-1.026e-07 4.25 1.90279 4.25 4.25v4.25h-4.25l-1.85773e-07-3.55271e-15c-2.34721-1.026e-07-4.25-1.90279-4.25-4.25 1.026e-07-2.34721 1.90279-4.25 4.25-4.25Zm0 10.5h4.25v4.25 0c0 2.34721-1.90279 4.25-4.25 4.25 -2.34721 0-4.25-1.90279-4.25-4.25 0-2.34721 1.90279-4.25 4.25-4.25Zm10.5-10.5l-1.85773e-07 3.55271e-15c2.34721-1.026e-07 4.25 1.90279 4.25 4.25 1.026e-07 2.34721-1.90279 4.25-4.25 4.25h-4.25v-4.25l4.9738e-14 6.41732e-07c-3.54419e-07-2.34721 1.90279-4.25 4.25-4.25Zm-4.25 10.5h4.25l-1.85773e-07 3.55271e-15c2.34721-1.026e-07 4.25 1.90279 4.25 4.25 1.026e-07 2.34721-1.90279 4.25-4.25 4.25 -2.34721 1.026e-07-4.25-1.90279-4.25-4.25v-4.25Z"></path></svg>