<?xml version="1.0" encoding="UTF-8"?><svg version="1.1" viewBox="0 0 24 24" xmlns="http://www.w3.org/2000/svg" xmlns:xlink="http://www.w3.org/1999/xlink"><path d="M0 0h24v24h-24Z" fill="none"></path><path fill="#0287FF" d="M21 20v0c0 .552285-.447715 1-1 1h-16 -4.37114e-08c-.552285-2.41411e-08-1-.447715-1-1 0 0 0-3.55271e-15 0-3.55271e-15v-10.51l-2.19935e-09-3.17733e-06c-.000213266-.308808.142258-.600392.386003-.789999l8-6.222 -2.08209e-08 1.61966e-08c.361134-.280925.866866-.280925 1.228-3.23931e-08l8 6.222 5.13499e-08 3.9945e-08c.243744.189608.386214.481192.386.79v10.51Zm-14-5v2h10v-2h-10Z"></path></svg>