<?xml version="1.0" encoding="UTF-8"?><svg version="1.1" viewBox="0 0 24 24" xmlns="http://www.w3.org/2000/svg" xmlns:xlink="http://www.w3.org/1999/xlink"><path d="M0 0h24v24h-24Z" fill="none"></path><path fill="#0287FF" d="M12 2c5.52 0 10 4.48 10 10 0 5.52-4.48 10-10 10 -5.52 0-10-4.48-10-10 0-5.52 4.48-10 10-10Zm-5.977 13.416c1.468 2.19 3.672 3.584 6.137 3.584 2.464 0 4.669-1.393 6.136-3.584l-1.2273e-07-1.14703e-07c-1.66426-1.5554-3.85806-2.41919-6.136-2.416l-1.25479e-07-1.898e-10c-2.27829-.00344615-4.47249.86036-6.137 2.416Zm5.977-4.416l-1.31134e-07-3.55271e-15c1.65685 7.24234e-08 3-1.34315 3-3 7.24234e-08-1.65685-1.34315-3-3-3l-1.31134e-07 3.55271e-15c-1.65685 7.24234e-08-3 1.34315-3 3 7.24234e-08 1.65685 1.34315 3 3 3Z"></path></svg>